<svg width="18" height="19" viewBox="0 0 18 19" fill="none" xmlns="http://www.w3.org/2000/svg">
<g clip-path="url(#clip0_313_73)">
<path d="M9 18.5L6.75 15.125H7.875V12.875H10.125V15.125H11.25L9 18.5ZM16.875 1.625V10.625H1.125V1.625H16.875ZM18 0.5H0V11.75H18V0.5Z" fill="#333333"/>
<path d="M9 2.75C9.89511 2.75 10.7536 3.10558 11.3865 3.73851C12.0194 4.37145 12.375 5.22989 12.375 6.125C12.375 7.02011 12.0194 7.87855 11.3865 8.51149C10.7536 9.14442 9.89511 9.5 9 9.5H14.625V8.375H15.75V3.875H14.625V2.75H9ZM5.625 6.125C5.625 5.22989 5.98058 4.37145 6.61351 3.73851C7.24645 3.10558 8.10489 2.75 9 2.75H3.375V3.875H2.25V8.375H3.375V9.5H9C8.10489 9.5 7.24645 9.14442 6.61351 8.51149C5.98058 7.87855 5.625 7.02011 5.625 6.125Z" fill="#333333"/>
</g>
<defs>
<clipPath id="clip0_313_73">
<rect width="18" height="18" fill="white" transform="translate(0 0.5)"/>
</clipPath>
</defs>
</svg>
